<svg width="33" height="35" viewBox="0 0 33 35" fill="none" xmlns="http://www.w3.org/2000/svg">
<path d="M28.5499 9.31972L19.8146 0.569722C19.4642 0.21875 18.978 0 18.4412 0C17.3697 0 16.501 0.871111 16.5001 1.94444C16.5001 2.48111 16.7175 2.96819 17.0688 3.32014L13.3233 7.07194L22.0586 15.8219L25.8041 12.0701C26.1555 12.4211 26.6408 12.6389 27.1765 12.6389C28.2481 12.6389 29.1187 11.7678 29.1177 10.6944C29.1177 10.1578 28.9003 9.67167 28.5499 9.31972Z" fill="#E1E8ED"/>
<path d="M18.4412 0H3.88235C1.73832 0 0 1.74125 0 3.88889V31.1111C0 33.2587 1.73832 35 3.88235 35H25.2353C27.3793 35 29.1176 33.2587 29.1176 31.1111V10.6944H20.3824C19.4118 10.6944 18.4412 9.72222 18.4412 8.75V0Z" fill="#CCD6DD"/>
<path d="M18.4412 0H16.5V8.75C16.5 10.8976 18.2383 12.6389 20.3824 12.6389H29.1176V10.6944H20.3824C19.4118 10.6944 18.4412 9.72222 18.4412 8.75V0ZM13.5882 7.77778C13.5882 8.31444 13.1534 8.75 12.6176 8.75H4.85294C4.31718 8.75 3.88235 8.31444 3.88235 7.77778C3.88235 7.24111 4.31718 6.80556 4.85294 6.80556H12.6176C13.1534 6.80556 13.5882 7.24111 13.5882 7.77778ZM13.5882 11.6667C13.5882 12.2033 13.1534 12.6389 12.6176 12.6389H4.85294C4.31718 12.6389 3.88235 12.2033 3.88235 11.6667C3.88235 11.13 4.31718 10.6944 4.85294 10.6944H12.6176C13.1534 10.6944 13.5882 11.13 13.5882 11.6667ZM25.2353 15.5556C25.2353 16.0922 24.8014 16.5278 24.2647 16.5278H4.85294C4.31718 16.5278 3.88235 16.0922 3.88235 15.5556C3.88235 15.0189 4.31718 14.5833 4.85294 14.5833H24.2647C24.8014 14.5833 25.2353 15.0189 25.2353 15.5556ZM25.2353 19.4444C25.2353 19.9821 24.8014 20.4167 24.2647 20.4167H4.85294C4.31718 20.4167 3.88235 19.9821 3.88235 19.4444C3.88235 18.9068 4.31718 18.4722 4.85294 18.4722H24.2647C24.8014 18.4722 25.2353 18.9068 25.2353 19.4444ZM25.2353 23.3333C25.2353 23.871 24.8014 24.3056 24.2647 24.3056H4.85294C4.31718 24.3056 3.88235 23.871 3.88235 23.3333C3.88235 22.7957 4.31718 22.3611 4.85294 22.3611H24.2647C24.8014 22.3611 25.2353 22.7957 25.2353 23.3333ZM25.2353 27.2222C25.2353 27.7599 24.8014 28.1944 24.2647 28.1944H4.85294C4.31718 28.1944 3.88235 27.7599 3.88235 27.2222C3.88235 26.6846 4.31718 26.25 4.85294 26.25H24.2647C24.8014 26.25 25.2353 26.6846 25.2353 27.2222Z" fill="#99AAB5"/>
<path d="M29.1177 18.4722C29.1177 18.4722 23.3854 18.4703 23.3573 18.4722C23.0749 18.4722 22.4741 18.6414 22.1392 19.0614L19.8797 21.909C19.2546 22.6956 19.2546 23.9692 19.8797 24.7577L22.1392 27.6053C22.4741 28.0253 23.0749 28.1945 23.3573 28.1945C23.3757 28.1964 26.8 28.1945 29.1177 28.1945V18.4722Z" fill="#66757F"/>
<path d="M31.059 18.4722C31.059 18.4722 23.24 18.4703 23.2128 18.4722C22.9303 18.4722 22.3295 18.6074 21.9947 18.9438L19.7352 21.2207C19.1111 21.8497 19.1111 22.8686 19.7352 23.4996L21.9947 25.7765C22.3295 26.1129 22.9303 26.25 23.2128 26.25C23.24 26.252 31.059 26.25 31.059 26.25C32.1305 26.25 33.0002 25.3779 33.0002 24.3046V20.4167C33.0002 19.3433 32.1305 18.4722 31.059 18.4722Z" fill="#744EAA"/>
</svg>
