<svg width="49" height="50" viewBox="0 0 49 50" fill="none" xmlns="http://www.w3.org/2000/svg">
<path d="M6.62411 12.9074C7.90505 12.0121 9.836 12.1838 10.9861 13.1336L9.66702 11.2163C8.60548 9.70231 8.98567 8.06435 10.501 7.00144C12.0163 5.94262 16.3102 8.7893 16.3102 8.7893C15.2391 7.26035 15.4394 5.32259 16.9684 4.25015C18.4973 3.18179 20.6068 3.55108 21.6779 5.08276L35.8772 25.1417L34.0675 42.6865L18.9647 37.1785L5.7915 17.6469C4.71088 16.1084 5.08426 13.9866 6.62411 12.9074Z" fill="#EF9645"/>
<path d="M3.67248 24.0666C3.67248 24.0666 2.1299 21.8181 4.37972 20.2769C6.62682 18.7357 8.16803 20.9828 8.16803 20.9828L15.3236 31.4183C15.5702 31.0068 15.84 30.6007 16.1412 30.2001L6.20983 15.7187C6.20983 15.7187 4.66862 13.4716 6.91707 11.9304C9.16417 10.3891 10.7054 12.6362 10.7054 12.6362L20.0467 26.2592C20.3942 25.9757 20.7499 25.6909 21.1164 25.4116L10.287 9.61649C10.287 9.61649 8.74582 7.3694 10.9943 5.82818C13.2414 4.28697 14.7826 6.53406 14.7826 6.53406L25.612 22.3264C26.0099 22.0825 26.4037 21.8713 26.7989 21.6478L16.6767 6.887C16.6767 6.887 15.1355 4.63991 17.3826 3.09869C19.6297 1.55748 21.1709 3.80457 21.1709 3.80457L31.8736 19.4129L33.5006 21.7868C26.758 26.4118 26.1162 35.1126 29.9685 40.731C30.7384 41.8553 31.8627 41.0853 31.8627 41.0853C27.239 34.3413 28.6508 26.7634 35.3948 22.1397L33.4066 12.1893C33.4066 12.1893 32.6639 9.56744 35.2844 8.8234C37.9063 8.08073 38.6503 10.7026 38.6503 10.7026L40.9464 17.5215C41.8567 20.2251 42.8256 22.9192 44.1079 25.4674C47.7286 32.6625 45.566 41.6045 38.7389 46.2881C31.2917 51.3942 21.111 49.4959 16.0036 42.0501L3.67248 24.0666Z" fill="#FFDC5D"/>
<path d="M16.3524 44.1065C10.9016 44.1065 5.39355 38.5984 5.39355 33.1476C5.39355 32.394 4.84166 31.7849 4.08809 31.7849C3.33451 31.7849 2.66815 32.394 2.66815 33.1476C2.66815 41.3238 8.17619 46.8319 16.3524 46.8319C17.106 46.8319 17.7151 46.1655 17.7151 45.4119C17.7151 44.6583 17.106 44.1065 16.3524 44.1065Z" fill="#5DADEC"/>
<path d="M9.53891 46.7746C5.4508 46.7746 2.7254 44.0492 2.7254 39.9611C2.7254 39.2075 2.11627 38.5984 1.3627 38.5984C0.609127 38.5984 0 39.2075 0 39.9611C0 45.4119 4.0881 49.5 9.53891 49.5C10.2925 49.5 10.9016 48.8909 10.9016 48.1373C10.9016 47.3837 10.2925 46.7746 9.53891 46.7746ZM32.7048 3.16815C31.9526 3.16815 31.3421 3.77864 31.3421 4.53085C31.3421 5.28306 31.9526 5.89355 32.7048 5.89355C38.1556 5.89355 43.6064 10.7843 43.6064 16.7952C43.6064 17.5474 44.2169 18.1579 44.9691 18.1579C45.7213 18.1579 46.3318 17.5474 46.3318 16.7952C46.3318 9.28123 40.881 3.16815 32.7048 3.16815Z" fill="#5DADEC"/>
<path d="M39.5183 0.5C38.7661 0.5 38.1556 1.05326 38.1556 1.80547C38.1556 2.55768 38.7661 3.2254 39.5183 3.2254C43.6064 3.2254 46.2746 6.25741 46.2746 9.98167C46.2746 10.7339 46.941 11.3444 47.6945 11.3444C48.4481 11.3444 49 10.7339 49 9.98167C49 4.75299 44.9691 0.5 39.5183 0.5Z" fill="#5DADEC"/>
</svg>
