<svg width="30" height="37" viewBox="0 0 30 37" fill="none" xmlns="http://www.w3.org/2000/svg">
<path d="M29.9378 16.151C29.7918 15.76 29.4178 15.5 28.9998 15.5H16.9248L23.8898 1.958C24.1088 1.532 23.9958 1.011 23.6188 0.715C23.4368 0.571 23.2178 0.5 22.9998 0.5C22.7668 0.5 22.5338 0.582 22.3468 0.743L14.9998 7.088L0.346837 19.743C0.0308365 20.016 -0.0831634 20.457 0.0628366 20.848C0.208837 21.239 0.581837 21.5 0.999837 21.5H13.0748L6.10984 35.042C5.89084 35.468 6.00384 35.989 6.38084 36.285C6.56284 36.429 6.78184 36.5 6.99984 36.5C7.23284 36.5 7.46584 36.418 7.65284 36.257L14.9998 29.912L29.6528 17.257C29.9698 16.984 30.0828 16.543 29.9378 16.151V16.151Z" fill="#FFAC33"/>
</svg>
