<svg width="25" height="25" viewBox="0 0 25 25" fill="none" xmlns="http://www.w3.org/2000/svg">
<path d="M0.0192871 12.1429L5.72933 7.14288L17.1494 7.85717L17.8632 19.2857L12.8669 25C12.8669 25 12.8676 20.715 8.58435 16.4286C4.3011 12.1422 0.0192871 12.1429 0.0192871 12.1429Z" fill="#A0041E"/>
<path d="M1.39237e-05 25C1.39237e-05 25 -0.0256812 19.3007 2.13057 17.1429C4.28683 14.985 10.0119 15.1336 10.0119 15.1336C10.0119 15.1336 10.0111 20.7143 7.86988 22.8572C5.72861 25 1.39237e-05 25 1.39237e-05 25V25Z" fill="#FFAC33"/>
<path d="M5.7288 22.1429C7.30558 22.1429 8.58382 20.8637 8.58382 19.2857C8.58382 17.7078 7.30558 16.4286 5.7288 16.4286C4.15201 16.4286 2.87378 17.7078 2.87378 19.2857C2.87378 20.8637 4.15201 22.1429 5.7288 22.1429Z" fill="#FFCC4D"/>
<path d="M25 0C25 0 17.8624 0 9.29736 7.14286C5.01483 10.7143 5.01483 17.1429 6.44234 18.5714C7.86985 20 14.2936 20 17.8624 15.7143C25 7.14286 25 0 25 0Z" fill="#55ACEE"/>
<path d="M18.5761 3.57141C17.4177 3.57141 16.4255 4.26498 15.9773 5.25713C16.3356 5.09498 16.7303 4.99998 17.1486 4.99998C18.7253 4.99998 20.0036 6.27927 20.0036 7.85713C20.0036 8.2757 19.9087 8.6707 19.7473 9.02855C20.7388 8.5807 21.4311 7.58784 21.4311 6.42855C21.4311 4.8507 20.1528 3.57141 18.5761 3.57141V3.57141Z" fill="black"/>
<path d="M5.01562 20C5.01562 20 5.01562 17.1428 5.72938 16.4286C6.44314 15.7143 15.0089 8.57213 15.722 9.2857C16.435 9.99927 9.29744 18.5714 8.58369 19.2857C7.86993 20 5.01562 20 5.01562 20Z" fill="#A0041E"/>
</svg>
