<svg width="46" height="40" viewBox="0 0 46 40" fill="none" xmlns="http://www.w3.org/2000/svg">
<g clip-path="url(#clip0_47_17)">
<path d="M1.76258 6.23751C1.07922 5.5539 1.07914 4.44604 1.76235 3.76234C1.76241 3.76227 1.76247 3.76221 1.76253 3.76215C1.76256 3.76213 1.76258 3.7621 1.7626 3.76208C2.44615 3.07924 3.55419 3.07927 4.23785 3.76238L19.2352 18.7644L19.2353 18.7645C19.919 19.4482 19.919 20.5514 19.2353 21.2351L19.2353 21.2351L4.23764 36.2351C3.55395 36.9188 2.44604 36.9187 1.76256 36.2351C1.07913 35.5514 1.07915 34.4481 1.7626 33.7644L1.76263 33.7644L14.9914 20.53L15.5214 19.9997L14.9913 19.4695L1.7626 6.23752C1.7626 6.23752 1.76259 6.23751 1.76258 6.23751ZM43 33.2498C43.9686 33.2498 44.75 34.0312 44.75 34.9998C44.75 35.9684 43.9686 36.7498 43 36.7498H20.5C19.5314 36.7498 18.75 35.9684 18.75 34.9998C18.75 34.0312 19.5314 33.2498 20.5 33.2498H43Z" stroke="#5C17EF" stroke-width="1.5"/>
</g>
<defs>
<clipPath id="clip0_47_17">
<rect width="45" height="40" fill="white" transform="translate(0.5)"/>
</clipPath>
</defs>
</svg>
