<svg width="30" height="36" viewBox="0 0 30 36" fill="none" xmlns="http://www.w3.org/2000/svg">
<path d="M29.9378 15.651C29.7918 15.26 29.4178 15 28.9998 15H16.9248L23.8898 1.458C24.1088 1.032 23.9958 0.511 23.6188 0.215C23.4368 0.071 23.2178 0 22.9998 0C22.7668 0 22.5338 0.082 22.3468 0.243L14.9998 6.588L0.346837 19.243C0.0308365 19.516 -0.0831634 19.957 0.0628366 20.348C0.208837 20.739 0.581837 21 0.999837 21H13.0748L6.10984 34.542C5.89084 34.968 6.00384 35.489 6.38084 35.785C6.56284 35.929 6.78184 36 6.99984 36C7.23284 36 7.46584 35.918 7.65284 35.757L14.9998 29.412L29.6528 16.757C29.9698 16.484 30.0828 16.043 29.9378 15.651V15.651Z" fill="#FFAC33"/>
</svg>
